<svg xmlns="http://www.w3.org/2000/svg" data-name="Camada 1" x="0px" y="0px" viewBox="22 15.66 84 96.69"><title>Prancheta 53</title><path fill="#FDE5D4" d="M105.5,39.46191,64.5,15.791a1.00438,1.00438,0,0,0-1,0l-41,23.6709a.99985.99985,0,0,0-.5.86621V87.67188a.99985.99985,0,0,0,.5.86621l41,23.6709a1.0012,1.0012,0,0,0,1,0l41-23.6709a.99985.99985,0,0,0,.5-.86621V40.32813A.99985.99985,0,0,0,105.5,39.46191ZM104,40.90527v8.96307L74.26172,32.69922a1.00438,1.00438,0,0,0-1,0L43.52393,49.86835V40.90527l30.23779-17.4574ZM84.47656,75.8219,64,87.64392,43.52393,75.82214V52.1781L64,40.35608l20.47656,11.822ZM64,17.81152l7.76147,4.48138-29.73755,17.169a.99985.99985,0,0,0-.5.86621V74.66754l-7.76221-4.481V35.2699ZM31.76172,36.4245V70.76367a.99985.99985,0,0,0,.5.86621l29.738,17.169-7.76147,4.48138L24,75.8219V40.90527ZM24,87.09473V78.13165L53.73828,95.30078a1.0012,1.0012,0,0,0,1,0L84.47656,78.13165v8.96307L54.238,104.55133Zm40,23.09375-7.76227-4.48187L85.97656,88.53809a.99985.99985,0,0,0,.5-.86621V53.3327l7.76172,4.48077V92.7301Zm32.23828-18.613V57.23633a.99985.99985,0,0,0-.5-.86621L66,39.20117l7.76172-4.48145L104,52.1781V87.09473Z"/></svg>